<svg width="17" height="19" viewBox="0 0 17 19" fill="none" xmlns="http://www.w3.org/2000/svg">
<path d="M8.5 0C4.5 0 0.5 0.5 0.5 4V13.5C0.5 14.45 0.88 15.31 1.5 15.94V18C1.5 18.55 1.95 19 2.5 19H3.5C4.05 19 4.5 18.55 4.5 18V17H12.5V18C12.5 18.55 12.95 19 13.5 19H14.5C15.05 19 15.5 18.55 15.5 18V15.94C16.12 15.31 16.5 14.45 16.5 13.5V4C16.5 0.5 12.92 0 8.5 0ZM5 14C4.17 14 3.5 13.33 3.5 12.5C3.5 11.67 4.17 11 5 11C5.83 11 6.5 11.67 6.5 12.5C6.5 13.33 5.83 14 5 14ZM12 14C11.17 14 10.5 13.33 10.5 12.5C10.5 11.67 11.17 11 12 11C12.83 11 13.5 11.67 13.5 12.5C13.5 13.33 12.83 14 12 14ZM14.5 8H2.5V5H14.5V8Z" fill="white"/>
</svg>
