<svg width="19" height="23" viewBox="0 0 19 23" fill="none" xmlns="http://www.w3.org/2000/svg">
<path fill-rule="evenodd" clip-rule="evenodd" d="M18.5006 9.29264C18.5006 14.9483 13.5602 19.7757 10.9144 21.9555C9.95504 22.7458 8.61709 22.7458 7.65775 21.9555C5.01192 19.7757 0.0715332 14.9483 0.0715332 9.29264C0.0715332 4.17364 4.19702 0.0238647 9.28606 0.0238647C14.3751 0.0238647 18.5006 4.17364 18.5006 9.29264ZM13 9.50003C13 11.4331 11.4331 13 9.5 13C7.56695 13 6 11.4331 6 9.50003C6 7.56704 7.56695 6.00003 9.5 6.00003C11.4331 6.00003 13 7.56704 13 9.50003Z" fill="#B6B6B6"/>
</svg>
