<svg width="22" height="22" viewBox="0 0 22 22" fill="none" xmlns="http://www.w3.org/2000/svg">
<path d="M9.40774 18.8155C11.4951 18.8151 13.5222 18.1163 15.1665 16.8304L20.336 22L21.9988 20.3372L16.8293 15.1676C18.1158 13.5232 18.815 11.4956 18.8155 9.40774C18.8155 4.22055 14.5949 0 9.40774 0C4.22055 0 0 4.22055 0 9.40774C0 14.5949 4.22055 18.8155 9.40774 18.8155ZM9.40774 2.35193C13.299 2.35193 16.4635 5.51646 16.4635 9.40774C16.4635 13.299 13.299 16.4635 9.40774 16.4635C5.51646 16.4635 2.35193 13.299 2.35193 9.40774C2.35193 5.51646 5.51646 2.35193 9.40774 2.35193Z" fill="#B6B6B6"/>
</svg>
